<svg width="1920" height="1080" viewBox="0 0 1920 1080" fill="none" xmlns="http://www.w3.org/2000/svg">
<g clip-path="url(#clip0_51_949)">
<rect width="1920" height="1080" fill="#3A442E"/>
<path d="M82.232 993V975.48H84.392V982.968H90.008V975.48H92.168V993H90.008V984.936H84.392V993H82.232ZM100.511 993V977.424H95.7106V975.456H107.471V977.424H102.671V993H100.511ZM114.901 993V977.424H110.101V975.456H121.861V977.424H117.061V993H114.901ZM125.38 993V975.48H131.02C132.108 975.48 133.052 975.696 133.852 976.128C134.652 976.544 135.268 977.136 135.7 977.904C136.148 978.672 136.372 979.584 136.372 980.64C136.372 981.68 136.148 982.592 135.7 983.376C135.268 984.144 134.652 984.744 133.852 985.176C133.052 985.592 132.108 985.8 131.02 985.8H127.54V993H125.38ZM127.54 983.856H131.02C131.964 983.856 132.716 983.568 133.276 982.992C133.852 982.4 134.14 981.616 134.14 980.64C134.14 979.648 133.852 978.864 133.276 978.288C132.716 977.712 131.964 977.424 131.02 977.424H127.54V983.856ZM144.859 993.24C143.707 993.24 142.715 993.048 141.883 992.664C141.067 992.28 140.435 991.728 139.987 991.008C139.539 990.288 139.307 989.432 139.291 988.44H141.451C141.451 989.32 141.747 990.016 142.339 990.528C142.947 991.04 143.787 991.296 144.859 991.296C145.867 991.296 146.651 991.048 147.211 990.552C147.787 990.056 148.075 989.368 148.075 988.488C148.075 987.784 147.883 987.168 147.499 986.64C147.131 986.112 146.595 985.744 145.891 985.536L143.515 984.792C142.315 984.424 141.387 983.808 140.73 982.944C140.091 982.08 139.771 981.064 139.771 979.896C139.771 978.952 139.979 978.136 140.395 977.448C140.827 976.744 141.427 976.2 142.195 975.816C142.963 975.416 143.867 975.216 144.907 975.216C146.443 975.216 147.675 975.648 148.603 976.512C149.531 977.36 150.003 978.496 150.019 979.92H147.859C147.859 979.056 147.595 978.384 147.067 977.904C146.555 977.408 145.827 977.16 144.883 977.16C143.955 977.16 143.227 977.384 142.699 977.832C142.187 978.28 141.931 978.904 141.931 979.704C141.931 980.424 142.123 981.048 142.507 981.576C142.891 982.104 143.443 982.48 144.163 982.704L146.563 983.472C147.731 983.84 148.635 984.464 149.275 985.344C149.915 986.224 150.234 987.256 150.234 988.44C150.234 989.4 150.01 990.24 149.562 990.96C149.115 991.68 148.483 992.24 147.667 992.64C146.867 993.04 145.931 993.24 144.859 993.24ZM159.153 983.16C158.561 983.16 158.081 983 157.713 982.68C157.345 982.344 157.161 981.904 157.161 981.36C157.161 980.816 157.345 980.384 157.713 980.064C158.081 979.728 158.561 979.56 159.153 979.56C159.761 979.56 160.241 979.728 160.593 980.064C160.961 980.384 161.145 980.816 161.145 981.36C161.145 981.904 160.961 982.344 160.593 982.68C160.241 983 159.761 983.16 159.153 983.16ZM159.153 993.24C158.561 993.24 158.081 993.08 157.713 992.76C157.345 992.424 157.161 991.984 157.161 991.44C157.161 990.896 157.345 990.464 157.713 990.144C158.081 989.808 158.561 989.64 159.153 989.64C159.761 989.64 160.241 989.808 160.593 990.144C160.961 990.464 161.145 990.896 161.145 991.44C161.145 991.984 160.961 992.424 160.593 992.76C160.241 993.08 159.761 993.24 159.153 993.24ZM180.734 995.64L189.254 973.08H191.534L183.014 995.64H180.734ZM169.934 995.64L178.454 973.08H180.734L172.214 995.64H169.934ZM202.421 993.24C201.365 993.24 200.445 993.04 199.661 992.64C198.893 992.24 198.293 991.664 197.861 990.912C197.445 990.144 197.237 989.24 197.237 988.2V980.28C197.237 979.224 197.445 978.32 197.861 977.568C198.293 976.816 198.893 976.24 199.661 975.84C200.445 975.44 201.365 975.24 202.421 975.24C203.477 975.24 204.389 975.448 205.157 975.864C205.925 976.264 206.517 976.84 206.933 977.592C207.349 978.344 207.557 979.24 207.557 980.28H205.397C205.397 979.288 205.133 978.528 204.605 978C204.093 977.456 203.365 977.184 202.421 977.184C201.477 977.184 200.733 977.448 200.189 977.976C199.661 978.504 199.397 979.264 199.397 980.256V988.2C199.397 989.192 199.661 989.96 200.189 990.504C200.733 991.048 201.477 991.32 202.421 991.32C203.365 991.32 204.093 991.048 204.605 990.504C205.133 989.96 205.397 989.192 205.397 988.2V986.04H201.845V984.072H207.557V988.2C207.557 989.224 207.349 990.12 206.933 990.888C206.517 991.64 205.925 992.224 205.157 992.64C204.389 993.04 203.477 993.24 202.421 993.24ZM211.748 993V975.48H213.908V982.968H219.524V975.48H221.684V993H219.524V984.936H213.908V993H211.748ZM225.106 993L229.666 975.48H232.57L237.106 993H234.922L233.77 988.344H228.466L227.314 993H225.106ZM228.898 986.52H233.314L231.97 981.12C231.714 980.096 231.514 979.24 231.37 978.552C231.226 977.864 231.138 977.416 231.106 977.208C231.074 977.416 230.986 977.864 230.842 978.552C230.698 979.24 230.498 980.088 230.242 981.096L228.898 986.52ZM245.593 993.24C244.441 993.24 243.449 993.048 242.617 992.664C241.801 992.28 241.169 991.728 240.721 991.008C240.273 990.288 240.041 989.432 240.025 988.44H242.185C242.185 989.32 242.481 990.016 243.073 990.528C243.681 991.04 244.521 991.296 245.593 991.296C246.601 991.296 247.385 991.048 247.945 990.552C248.521 990.056 248.809 989.368 248.809 988.488C248.809 987.784 248.617 987.168 248.233 986.64C247.865 986.112 247.329 985.744 246.625 985.536L244.249 984.792C243.049 984.424 242.121 983.808 241.465 982.944C240.825 982.08 240.505 981.064 240.505 979.896C240.505 978.952 240.713 978.136 241.129 977.448C241.561 976.744 242.161 976.2 242.929 975.816C243.697 975.416 244.601 975.216 245.641 975.216C247.177 975.216 248.409 975.648 249.337 976.512C250.265 977.36 250.737 978.496 250.753 979.92H248.593C248.593 979.056 248.329 978.384 247.801 977.904C247.289 977.408 246.561 977.16 245.617 977.16C244.689 977.16 243.961 977.384 243.433 977.832C242.921 978.28 242.665 978.904 242.665 979.704C242.665 980.424 242.857 981.048 243.241 981.576C243.625 982.104 244.177 982.48 244.897 982.704L247.297 983.472C248.465 983.84 249.369 984.464 250.009 985.344C250.649 986.224 250.969 987.256 250.969 988.44C250.969 989.4 250.745 990.24 250.297 990.96C249.849 991.68 249.217 992.24 248.401 992.64C247.601 993.04 246.665 993.24 245.593 993.24ZM259.984 993.24C258.832 993.24 257.84 993.048 257.008 992.664C256.192 992.28 255.56 991.728 255.112 991.008C254.664 990.288 254.432 989.432 254.416 988.44H256.576C256.576 989.32 256.872 990.016 257.464 990.528C258.072 991.04 258.912 991.296 259.984 991.296C260.992 991.296 261.776 991.048 262.336 990.552C262.912 990.056 263.2 989.368 263.2 988.488C263.2 987.784 263.008 987.168 262.624 986.64C262.256 986.112 261.72 985.744 261.016 985.536L258.64 984.792C257.44 984.424 256.512 983.808 255.855 982.944C255.216 982.08 254.896 981.064 254.896 979.896C254.896 978.952 255.104 978.136 255.52 977.448C255.952 976.744 256.552 976.2 257.32 975.816C258.088 975.416 258.992 975.216 260.032 975.216C261.568 975.216 262.8 975.648 263.728 976.512C264.656 977.36 265.128 978.496 265.144 979.92H262.984C262.984 979.056 262.72 978.384 262.192 977.904C261.68 977.408 260.952 977.16 260.008 977.16C259.08 977.16 258.352 977.384 257.824 977.832C257.312 978.28 257.056 978.904 257.056 979.704C257.056 980.424 257.248 981.048 257.632 981.576C258.016 982.104 258.568 982.48 259.288 982.704L261.688 983.472C262.856 983.84 263.76 984.464 264.4 985.344C265.04 986.224 265.359 987.256 265.359 988.44C265.359 989.4 265.135 990.24 264.688 990.96C264.24 991.68 263.608 992.24 262.792 992.64C261.992 993.04 261.056 993.24 259.984 993.24ZM269.31 993V975.48H274.278C275.878 975.48 277.126 975.88 278.022 976.68C278.934 977.48 279.39 978.592 279.39 980.016C279.39 980.816 279.222 981.512 278.886 982.104C278.55 982.696 278.07 983.152 277.446 983.472C276.838 983.792 276.102 983.944 275.238 983.928V983.568C276.166 983.552 276.966 983.728 277.638 984.096C278.326 984.464 278.854 984.992 279.222 985.68C279.606 986.368 279.798 987.184 279.798 988.128C279.798 989.12 279.59 989.984 279.174 990.72C278.758 991.456 278.166 992.024 277.398 992.424C276.63 992.808 275.71 993 274.638 993H269.31ZM271.422 991.056H274.398C275.406 991.056 276.198 990.792 276.774 990.264C277.366 989.72 277.662 988.984 277.662 988.056C277.662 987.096 277.366 986.32 276.774 985.728C276.198 985.12 275.406 984.816 274.398 984.816H271.422V991.056ZM271.422 982.944H274.254C275.182 982.944 275.91 982.696 276.438 982.2C276.982 981.704 277.254 981.032 277.254 980.184C277.254 979.336 276.99 978.664 276.462 978.168C275.934 977.672 275.206 977.424 274.278 977.424H271.422V982.944ZM288.669 993.24C287.613 993.24 286.701 993.04 285.933 992.64C285.181 992.24 284.597 991.664 284.181 990.912C283.781 990.144 283.581 989.24 283.581 988.2V980.28C283.581 979.224 283.781 978.32 284.181 977.568C284.597 976.816 285.181 976.24 285.933 975.84C286.701 975.44 287.613 975.24 288.669 975.24C289.725 975.24 290.629 975.44 291.381 975.84C292.149 976.24 292.733 976.816 293.133 977.568C293.549 978.32 293.757 979.216 293.757 980.256V988.2C293.757 989.24 293.549 990.144 293.133 990.912C292.733 991.664 292.149 992.24 291.381 992.64C290.629 993.04 289.725 993.24 288.669 993.24ZM288.669 991.296C289.613 991.296 290.333 991.032 290.829 990.504C291.341 989.96 291.597 989.192 291.597 988.2V980.28C291.597 979.288 291.341 978.528 290.829 978C290.333 977.456 289.613 977.184 288.669 977.184C287.741 977.184 287.021 977.456 286.509 978C285.997 978.528 285.741 979.288 285.741 980.28V988.2C285.741 989.192 285.997 989.96 286.509 990.504C287.021 991.032 287.741 991.296 288.669 991.296ZM297.683 993V975.48H300.515L302.339 981.144C302.515 981.656 302.675 982.168 302.819 982.68C302.963 983.176 303.067 983.56 303.131 983.832C303.211 983.56 303.315 983.176 303.443 982.68C303.571 982.168 303.715 981.648 303.875 981.12L305.603 975.48H308.435V993H306.323V986.64C306.323 985.936 306.347 985.136 306.395 984.24C306.443 983.344 306.507 982.432 306.587 981.504C306.667 980.56 306.747 979.664 306.827 978.816C306.923 977.952 307.003 977.2 307.067 976.56L304.235 985.32H301.955L299.099 976.56C299.179 977.184 299.259 977.912 299.339 978.744C299.419 979.56 299.491 980.432 299.555 981.36C299.619 982.272 299.675 983.184 299.723 984.096C299.771 985.008 299.795 985.856 299.795 986.64V993H297.683ZM312.482 993V975.48H317.45C319.05 975.48 320.298 975.88 321.194 976.68C322.106 977.48 322.562 978.592 322.562 980.016C322.562 980.816 322.394 981.512 322.058 982.104C321.722 982.696 321.242 983.152 320.618 983.472C320.01 983.792 319.274 983.944 318.41 983.928V983.568C319.338 983.552 320.138 983.728 320.81 984.096C321.498 984.464 322.026 984.992 322.394 985.68C322.778 986.368 322.97 987.184 322.97 988.128C322.97 989.12 322.762 989.984 322.346 990.72C321.93 991.456 321.338 992.024 320.57 992.424C319.802 992.808 318.882 993 317.81 993H312.482ZM314.594 991.056H317.57C318.578 991.056 319.37 990.792 319.946 990.264C320.538 989.72 320.834 988.984 320.834 988.056C320.834 987.096 320.538 986.32 319.946 985.728C319.37 985.12 318.578 984.816 317.57 984.816H314.594V991.056ZM314.594 982.944H317.426C318.354 982.944 319.082 982.696 319.61 982.2C320.154 981.704 320.426 981.032 320.426 980.184C320.426 979.336 320.162 978.664 319.634 978.168C319.106 977.672 318.378 977.424 317.45 977.424H314.594V982.944ZM331.841 993.24C331.233 993.24 330.745 993.064 330.377 992.712C330.025 992.36 329.849 991.888 329.849 991.296C329.849 990.672 330.025 990.176 330.377 989.808C330.745 989.44 331.233 989.256 331.841 989.256C332.449 989.256 332.929 989.44 333.281 989.808C333.649 990.176 333.833 990.672 333.833 991.296C333.833 991.888 333.649 992.36 333.281 992.712C332.929 993.064 332.449 993.24 331.841 993.24ZM346.327 993.24C345.271 993.24 344.351 993.04 343.567 992.64C342.799 992.24 342.199 991.664 341.767 990.912C341.351 990.144 341.143 989.24 341.143 988.2V980.28C341.143 979.224 341.351 978.32 341.767 977.568C342.199 976.816 342.799 976.24 343.567 975.84C344.351 975.44 345.271 975.24 346.327 975.24C347.383 975.24 348.295 975.448 349.063 975.864C349.831 976.264 350.423 976.84 350.839 977.592C351.255 978.344 351.463 979.24 351.463 980.28H349.303C349.303 979.288 349.039 978.528 348.511 978C347.999 977.456 347.271 977.184 346.327 977.184C345.383 977.184 344.639 977.448 344.095 977.976C343.567 978.504 343.303 979.264 343.303 980.256V988.2C343.303 989.192 343.567 989.96 344.095 990.504C344.639 991.048 345.383 991.32 346.327 991.32C347.271 991.32 347.999 991.048 348.511 990.504C349.039 989.96 349.303 989.192 349.303 988.2V986.04H345.751V984.072H351.463V988.2C351.463 989.224 351.255 990.12 350.839 990.888C350.423 991.64 349.831 992.224 349.063 992.64C348.295 993.04 347.383 993.24 346.327 993.24ZM355.942 993V991.032H359.518V977.448H355.942V975.48H365.302V977.448H361.726V991.032H365.302V993H355.942ZM373.933 993V977.424H369.133V975.456H380.893V977.424H376.093V993H373.933ZM384.435 993V975.48H386.595V982.968H392.211V975.48H394.371V993H392.211V984.936H386.595V993H384.435ZM403.794 993.24C402.162 993.24 400.914 992.792 400.05 991.896C399.186 990.984 398.754 989.752 398.754 988.2V975.48H400.914V988.2C400.914 989.16 401.146 989.92 401.61 990.48C402.09 991.04 402.818 991.32 403.794 991.32C404.754 991.32 405.474 991.04 405.954 990.48C406.434 989.92 406.674 989.16 406.674 988.2V975.48H408.834V988.2C408.834 989.768 408.402 991 407.538 991.896C406.69 992.792 405.442 993.24 403.794 993.24ZM413.216 993V975.48H418.184C419.784 975.48 421.032 975.88 421.928 976.68C422.84 977.48 423.296 978.592 423.296 980.016C423.296 980.816 423.128 981.512 422.792 982.104C422.456 982.696 421.976 983.152 421.352 983.472C420.744 983.792 420.008 983.944 419.144 983.928V983.568C420.072 983.552 420.872 983.728 421.544 984.096C422.232 984.464 422.76 984.992 423.128 985.68C423.512 986.368 423.704 987.184 423.704 988.128C423.704 989.12 423.496 989.984 423.08 990.72C422.664 991.456 422.072 992.024 421.304 992.424C420.536 992.808 419.616 993 418.544 993H413.216ZM415.328 991.056H418.304C419.312 991.056 420.104 990.792 420.68 990.264C421.272 989.72 421.568 988.984 421.568 988.056C421.568 987.096 421.272 986.32 420.68 985.728C420.104 985.12 419.312 984.816 418.304 984.816H415.328V991.056ZM415.328 982.944H418.16C419.088 982.944 419.816 982.696 420.344 982.2C420.888 981.704 421.16 981.032 421.16 980.184C421.16 979.336 420.896 978.664 420.368 978.168C419.84 977.672 419.112 977.424 418.184 977.424H415.328V982.944ZM432.575 993.24C431.967 993.24 431.479 993.064 431.111 992.712C430.759 992.36 430.583 991.888 430.583 991.296C430.583 990.672 430.759 990.176 431.111 989.808C431.479 989.44 431.967 989.256 432.575 989.256C433.183 989.256 433.663 989.44 434.015 989.808C434.383 990.176 434.567 990.672 434.567 991.296C434.567 991.888 434.383 992.36 434.015 992.712C433.663 993.064 433.183 993.24 432.575 993.24ZM442.286 993V991.032H445.862V977.448H442.286V975.48H451.646V977.448H448.07V991.032H451.646V993H442.286ZM461.356 993.24C460.3 993.24 459.388 993.04 458.62 992.64C457.868 992.24 457.284 991.664 456.868 990.912C456.468 990.144 456.268 989.24 456.268 988.2V980.28C456.268 979.224 456.468 978.32 456.868 977.568C457.284 976.816 457.868 976.24 458.62 975.84C459.388 975.44 460.3 975.24 461.356 975.24C462.412 975.24 463.316 975.44 464.068 975.84C464.836 976.24 465.42 976.816 465.82 977.568C466.236 978.32 466.444 979.216 466.444 980.256V988.2C466.444 989.24 466.236 990.144 465.82 990.912C465.42 991.664 464.836 992.24 464.068 992.64C463.316 993.04 462.412 993.24 461.356 993.24ZM461.356 991.296C462.3 991.296 463.02 991.032 463.516 990.504C464.028 989.96 464.284 989.192 464.284 988.2V980.28C464.284 979.288 464.028 978.528 463.516 978C463.02 977.456 462.3 977.184 461.356 977.184C460.428 977.184 459.708 977.456 459.196 978C458.684 978.528 458.428 979.288 458.428 980.28V988.2C458.428 989.192 458.684 989.96 459.196 990.504C459.708 991.032 460.428 991.296 461.356 991.296ZM470.347 995.64L478.867 973.08H481.147L472.627 995.64H470.347Z" fill="#EBDBB2"/>
<path d="M80 997.32H482.947V998.52H80V997.32Z" fill="#EBDBB2"/>
<a href="https://ghassbomb.github.io/">
<rect fill="black" fill-opacity="0" y="0.16" width="402.947" height="31.68"/>
</a>
<path d="M84.08 947.64V925.08H91.4V928.44H87.68V944.28H91.4V947.64H84.08ZM110.653 945L109.021 927.48H111.973L112.861 939.192C112.877 939.416 112.893 939.736 112.909 940.152C112.925 940.552 112.941 940.976 112.957 941.424C112.989 941.856 113.005 942.248 113.005 942.6C113.037 942.248 113.069 941.856 113.101 941.424C113.149 940.976 113.197 940.552 113.245 940.152C113.293 939.736 113.325 939.416 113.341 939.192L114.637 927.48H117.373L118.621 939.192C118.653 939.416 118.685 939.736 118.717 940.152C118.765 940.552 118.813 940.976 118.861 941.424C118.925 941.856 118.973 942.248 119.005 942.6C119.021 942.248 119.037 941.856 119.053 941.424C119.069 940.976 119.085 940.552 119.101 940.152C119.117 939.736 119.133 939.416 119.149 939.192L119.965 927.48H122.941L121.189 945H117.445L116.269 933.36C116.237 933.088 116.205 932.736 116.173 932.304C116.141 931.856 116.109 931.392 116.077 930.912C116.045 930.432 116.013 930.008 115.981 929.64C115.965 930.008 115.941 930.432 115.909 930.912C115.877 931.392 115.845 931.856 115.813 932.304C115.781 932.736 115.749 933.088 115.717 933.36L114.421 945H110.653ZM125.092 945V927.48H135.892V930.552H128.62V934.488H135.052V937.56H128.62V941.928H135.892V945H125.092ZM139.146 945V927.48H144.787C146.563 927.48 147.979 927.888 149.035 928.704C150.091 929.504 150.619 930.592 150.619 931.968C150.619 932.736 150.435 933.408 150.067 933.984C149.715 934.56 149.235 935.008 148.627 935.328C148.035 935.648 147.387 935.808 146.683 935.808V935.88C147.467 935.864 148.179 936.008 148.819 936.312C149.475 936.616 150.003 937.072 150.403 937.68C150.803 938.288 151.003 939.04 151.003 939.936C151.003 940.96 150.755 941.856 150.259 942.624C149.779 943.376 149.091 943.96 148.195 944.376C147.299 944.792 146.235 945 145.003 945H139.146ZM142.627 942.096H144.859C145.643 942.096 146.259 941.888 146.707 941.472C147.155 941.056 147.379 940.48 147.379 939.744C147.379 939.008 147.155 938.432 146.707 938.016C146.259 937.584 145.643 937.368 144.859 937.368H142.627V942.096ZM142.627 934.536H144.739C145.443 934.536 145.995 934.352 146.395 933.984C146.795 933.6 146.995 933.088 146.995 932.448C146.995 931.792 146.795 931.288 146.395 930.936C145.995 930.568 145.443 930.384 144.739 930.384H142.627V934.536ZM159.153 945.24C157.921 945.24 156.849 945.032 155.937 944.616C155.025 944.2 154.321 943.616 153.825 942.864C153.329 942.112 153.081 941.224 153.081 940.2H156.681C156.681 940.792 156.905 941.264 157.353 941.616C157.817 941.952 158.441 942.12 159.225 942.12C159.977 942.12 160.561 941.952 160.977 941.616C161.409 941.28 161.625 940.816 161.625 940.224C161.625 939.712 161.465 939.272 161.145 938.904C160.825 938.536 160.377 938.288 159.801 938.16L158.025 937.752C156.537 937.4 155.377 936.752 154.545 935.808C153.729 934.848 153.321 933.68 153.321 932.304C153.321 931.28 153.553 930.392 154.017 929.64C154.497 928.872 155.169 928.28 156.033 927.864C156.897 927.448 157.921 927.24 159.105 927.24C160.897 927.24 162.313 927.688 163.353 928.584C164.409 929.464 164.937 930.656 164.937 932.16H161.337C161.337 931.6 161.137 931.16 160.737 930.84C160.353 930.52 159.793 930.36 159.057 930.36C158.369 930.36 157.841 930.52 157.473 930.84C157.105 931.144 156.921 931.584 156.921 932.16C156.921 932.672 157.065 933.112 157.353 933.48C157.657 933.832 158.081 934.072 158.625 934.2L160.497 934.632C162.049 934.984 163.225 935.624 164.025 936.552C164.825 937.464 165.225 938.632 165.225 940.056C165.225 941.08 164.969 941.984 164.457 942.768C163.961 943.552 163.257 944.16 162.345 944.592C161.449 945.024 160.385 945.24 159.153 945.24ZM168.264 945V941.88H171.744V930.6H168.264V927.48H178.824V930.6H175.344V941.88H178.824V945H168.264ZM186.134 945V930.84H181.694V927.48H194.174V930.84H189.734V945H186.134ZM197.045 945V927.48H207.845V930.552H200.573V934.488H207.005V937.56H200.573V941.928H207.845V945H197.045ZM226.906 947.64V944.28H230.626V928.44H226.906V925.08H234.226V947.64H226.906Z" fill="#EBDBB2"/>
<path d="M1302.08 947.64V925.08H1309.4V928.44H1305.68V944.28H1309.4V947.64H1302.08ZM1329.06 945V927.48H1332.66V941.64H1339.74V945H1329.06ZM1343.09 945V941.88H1346.57V930.6H1343.09V927.48H1353.65V930.6H1350.17V941.88H1353.65V945H1343.09ZM1357 945V927.48H1361.2L1365.74 941.04C1365.69 940.448 1365.63 939.768 1365.57 939C1365.51 938.216 1365.45 937.44 1365.4 936.672C1365.37 935.888 1365.35 935.224 1365.35 934.68V927.48H1368.52V945H1364.32L1359.83 931.44C1359.88 931.952 1359.93 932.56 1359.98 933.264C1360.03 933.968 1360.07 934.68 1360.1 935.4C1360.15 936.12 1360.17 936.76 1360.17 937.32V945H1357ZM1371.51 945V927.48H1375.11V934.272H1376.82L1379.7 927.48H1383.61L1380.01 935.856L1383.75 945H1379.79L1376.82 937.584H1375.11V945H1371.51ZM1386.26 945V927.48H1397.06V930.552H1389.79V934.488H1396.22V937.56H1389.79V941.928H1397.06V945H1386.26ZM1400.25 945V927.48H1405.93C1407.15 927.48 1408.21 927.712 1409.1 928.176C1410.01 928.64 1410.72 929.296 1411.21 930.144C1411.73 930.976 1411.98 931.96 1411.98 933.096V939.36C1411.98 940.48 1411.73 941.464 1411.21 942.312C1410.72 943.16 1410.01 943.824 1409.1 944.304C1408.21 944.768 1407.15 945 1405.93 945H1400.25ZM1403.85 941.64H1405.93C1406.67 941.64 1407.26 941.432 1407.71 941.016C1408.16 940.6 1408.38 940.048 1408.38 939.36V933.096C1408.38 932.424 1408.16 931.88 1407.71 931.464C1407.26 931.048 1406.67 930.84 1405.93 930.84H1403.85V941.64ZM1415.05 945V941.88H1418.53V930.6H1415.05V927.48H1425.61V930.6H1422.13V941.88H1425.61V945H1415.05ZM1428.96 945V927.48H1433.16L1437.69 941.04C1437.64 940.448 1437.59 939.768 1437.52 939C1437.46 938.216 1437.4 937.44 1437.36 936.672C1437.32 935.888 1437.31 935.224 1437.31 934.68V927.48H1440.48V945H1436.28L1431.79 931.44C1431.84 931.952 1431.88 932.56 1431.93 933.264C1431.98 933.968 1432.02 934.68 1432.05 935.4C1432.1 936.12 1432.12 936.76 1432.12 937.32V945H1428.96ZM1459.3 947.64V944.28H1463.02V928.44H1459.3V925.08H1466.62V947.64H1459.3Z" fill="#EBDBB2"/>
<path d="M1300.23 993V975.48H1302.39V982.968H1308.01V975.48H1310.17V993H1308.01V984.936H1302.39V993H1300.23ZM1318.51 993V977.424H1313.71V975.456H1325.47V977.424H1320.67V993H1318.51ZM1332.9 993V977.424H1328.1V975.456H1339.86V977.424H1335.06V993H1332.9ZM1343.38 993V975.48H1349.02C1350.11 975.48 1351.05 975.696 1351.85 976.128C1352.65 976.544 1353.27 977.136 1353.7 977.904C1354.15 978.672 1354.37 979.584 1354.37 980.64C1354.37 981.68 1354.15 982.592 1353.7 983.376C1353.27 984.144 1352.65 984.744 1351.85 985.176C1351.05 985.592 1350.11 985.8 1349.02 985.8H1345.54V993H1343.38ZM1345.54 983.856H1349.02C1349.96 983.856 1350.72 983.568 1351.28 982.992C1351.85 982.4 1352.14 981.616 1352.14 980.64C1352.14 979.648 1351.85 978.864 1351.28 978.288C1350.72 977.712 1349.96 977.424 1349.02 977.424H1345.54V983.856ZM1362.86 993.24C1361.71 993.24 1360.71 993.048 1359.88 992.664C1359.07 992.28 1358.43 991.728 1357.99 991.008C1357.54 990.288 1357.31 989.432 1357.29 988.44H1359.45C1359.45 989.32 1359.75 990.016 1360.34 990.528C1360.95 991.04 1361.79 991.296 1362.86 991.296C1363.87 991.296 1364.65 991.048 1365.21 990.552C1365.79 990.056 1366.07 989.368 1366.07 988.488C1366.07 987.784 1365.88 987.168 1365.5 986.64C1365.13 986.112 1364.59 985.744 1363.89 985.536L1361.51 984.792C1360.31 984.424 1359.39 983.808 1358.73 982.944C1358.09 982.08 1357.77 981.064 1357.77 979.896C1357.77 978.952 1357.98 978.136 1358.39 977.448C1358.83 976.744 1359.43 976.2 1360.19 975.816C1360.96 975.416 1361.87 975.216 1362.91 975.216C1364.44 975.216 1365.67 975.648 1366.6 976.512C1367.53 977.36 1368 978.496 1368.02 979.92H1365.86C1365.86 979.056 1365.59 978.384 1365.07 977.904C1364.55 977.408 1363.83 977.16 1362.88 977.16C1361.95 977.16 1361.23 977.384 1360.7 977.832C1360.19 978.28 1359.93 978.904 1359.93 979.704C1359.93 980.424 1360.12 981.048 1360.51 981.576C1360.89 982.104 1361.44 982.48 1362.16 982.704L1364.56 983.472C1365.73 983.84 1366.63 984.464 1367.27 985.344C1367.91 986.224 1368.23 987.256 1368.23 988.44C1368.23 989.4 1368.01 990.24 1367.56 990.96C1367.11 991.68 1366.48 992.24 1365.67 992.64C1364.87 993.04 1363.93 993.24 1362.86 993.24ZM1377.15 983.16C1376.56 983.16 1376.08 983 1375.71 982.68C1375.35 982.344 1375.16 981.904 1375.16 981.36C1375.16 980.816 1375.35 980.384 1375.71 980.064C1376.08 979.728 1376.56 979.56 1377.15 979.56C1377.76 979.56 1378.24 979.728 1378.59 980.064C1378.96 980.384 1379.15 980.816 1379.15 981.36C1379.15 981.904 1378.96 982.344 1378.59 982.68C1378.24 983 1377.76 983.16 1377.15 983.16ZM1377.15 993.24C1376.56 993.24 1376.08 993.08 1375.71 992.76C1375.35 992.424 1375.16 991.984 1375.16 991.44C1375.16 990.896 1375.35 990.464 1375.71 990.144C1376.08 989.808 1376.56 989.64 1377.15 989.64C1377.76 989.64 1378.24 989.808 1378.59 990.144C1378.96 990.464 1379.15 990.896 1379.15 991.44C1379.15 991.984 1378.96 992.424 1378.59 992.76C1378.24 993.08 1377.76 993.24 1377.15 993.24ZM1398.73 995.64L1407.25 973.08H1409.53L1401.01 995.64H1398.73ZM1387.93 995.64L1396.45 973.08H1398.73L1390.21 995.64H1387.93ZM1415.74 993L1413.73 975.48H1415.79L1417.11 988.44C1417.14 988.792 1417.17 989.16 1417.21 989.544C1417.24 989.912 1417.26 990.264 1417.28 990.6C1417.31 990.936 1417.33 991.216 1417.33 991.44C1417.36 991.216 1417.38 990.936 1417.4 990.6C1417.43 990.264 1417.46 989.912 1417.49 989.544C1417.54 989.16 1417.59 988.792 1417.64 988.44L1419.27 975.48H1421.5L1422.99 988.44C1423.04 988.792 1423.08 989.16 1423.11 989.544C1423.16 989.912 1423.2 990.264 1423.23 990.6C1423.28 990.936 1423.31 991.216 1423.33 991.44C1423.34 991.216 1423.36 990.936 1423.37 990.6C1423.41 990.264 1423.44 989.912 1423.47 989.544C1423.52 989.16 1423.56 988.792 1423.59 988.44L1424.96 975.48H1426.93L1424.86 993H1422.15L1420.66 979.8C1420.63 979.432 1420.59 979.072 1420.54 978.72C1420.51 978.368 1420.48 978.04 1420.45 977.736C1420.41 977.432 1420.39 977.184 1420.37 976.992C1420.36 977.184 1420.33 977.432 1420.28 977.736C1420.25 978.04 1420.21 978.368 1420.18 978.72C1420.15 979.072 1420.11 979.432 1420.06 979.8L1418.45 993H1415.74ZM1430.13 993L1428.12 975.48H1430.18L1431.5 988.44C1431.53 988.792 1431.56 989.16 1431.6 989.544C1431.63 989.912 1431.65 990.264 1431.67 990.6C1431.7 990.936 1431.72 991.216 1431.72 991.44C1431.75 991.216 1431.77 990.936 1431.79 990.6C1431.82 990.264 1431.85 989.912 1431.88 989.544C1431.93 989.16 1431.98 988.792 1432.03 988.44L1433.66 975.48H1435.89L1437.38 988.44C1437.43 988.792 1437.47 989.16 1437.5 989.544C1437.55 989.912 1437.59 990.264 1437.62 990.6C1437.67 990.936 1437.7 991.216 1437.72 991.44C1437.73 991.216 1437.75 990.936 1437.76 990.6C1437.8 990.264 1437.83 989.912 1437.86 989.544C1437.91 989.16 1437.95 988.792 1437.98 988.44L1439.35 975.48H1441.32L1439.25 993H1436.54L1435.05 979.8C1435.02 979.432 1434.98 979.072 1434.93 978.72C1434.9 978.368 1434.87 978.04 1434.84 977.736C1434.8 977.432 1434.78 977.184 1434.76 976.992C1434.75 977.184 1434.72 977.432 1434.67 977.736C1434.64 978.04 1434.6 978.368 1434.57 978.72C1434.54 979.072 1434.5 979.432 1434.45 979.8L1432.84 993H1430.13ZM1444.52 993L1442.51 975.48H1444.57L1445.89 988.44C1445.92 988.792 1445.95 989.16 1445.99 989.544C1446.02 989.912 1446.04 990.264 1446.06 990.6C1446.09 990.936 1446.11 991.216 1446.11 991.44C1446.14 991.216 1446.16 990.936 1446.18 990.6C1446.21 990.264 1446.24 989.912 1446.27 989.544C1446.32 989.16 1446.37 988.792 1446.42 988.44L1448.05 975.48H1450.28L1451.77 988.44C1451.82 988.792 1451.86 989.16 1451.89 989.544C1451.94 989.912 1451.98 990.264 1452.01 990.6C1452.06 990.936 1452.09 991.216 1452.11 991.44C1452.12 991.216 1452.14 990.936 1452.15 990.6C1452.19 990.264 1452.22 989.912 1452.25 989.544C1452.3 989.16 1452.34 988.792 1452.37 988.44L1453.74 975.48H1455.71L1453.64 993H1450.93L1449.44 979.8C1449.41 979.432 1449.37 979.072 1449.32 978.72C1449.29 978.368 1449.26 978.04 1449.23 977.736C1449.19 977.432 1449.17 977.184 1449.15 976.992C1449.14 977.184 1449.11 977.432 1449.06 977.736C1449.03 978.04 1448.99 978.368 1448.96 978.72C1448.93 979.072 1448.89 979.432 1448.84 979.8L1447.23 993H1444.52ZM1463.5 993.24C1462.89 993.24 1462.4 993.064 1462.03 992.712C1461.68 992.36 1461.5 991.888 1461.5 991.296C1461.5 990.672 1461.68 990.176 1462.03 989.808C1462.4 989.44 1462.89 989.256 1463.5 989.256C1464.1 989.256 1464.58 989.44 1464.94 989.808C1465.3 990.176 1465.49 990.672 1465.49 991.296C1465.49 991.888 1465.3 992.36 1464.94 992.712C1464.58 993.064 1464.1 993.24 1463.5 993.24ZM1473.45 993V975.48H1475.61V991.032H1483.53V993H1473.45ZM1487.6 993V991.032H1491.17V977.448H1487.6V975.48H1496.96V977.448H1493.38V991.032H1496.96V993H1487.6ZM1501.63 993V975.48H1504.51L1509.86 990.48C1509.83 990.08 1509.79 989.592 1509.74 989.016C1509.71 988.424 1509.68 987.808 1509.64 987.168C1509.63 986.512 1509.62 985.896 1509.62 985.32V975.48H1511.71V993H1508.83L1503.5 978C1503.53 978.384 1503.56 978.872 1503.6 979.464C1503.63 980.04 1503.65 980.656 1503.67 981.312C1503.7 981.952 1503.72 982.568 1503.72 983.16V993H1501.63ZM1516.07 993V975.48H1518.23V982.992H1520.82L1524.71 975.48H1527.06L1522.72 983.904L1527.3 993H1524.83L1520.75 984.888H1518.23V993H1516.07ZM1530.65 993V975.48H1540.73V977.448H1532.79V982.872H1539.89V984.816H1532.79V991.032H1540.73V993H1530.65ZM1544.85 993V975.48H1549.38C1550.52 975.48 1551.5 975.696 1552.31 976.128C1553.14 976.56 1553.78 977.168 1554.23 977.952C1554.7 978.736 1554.93 979.664 1554.93 980.736V987.72C1554.93 988.792 1554.7 989.728 1554.23 990.528C1553.78 991.312 1553.14 991.92 1552.31 992.352C1551.5 992.784 1550.52 993 1549.38 993H1544.85ZM1547.01 991.08H1549.38C1550.44 991.08 1551.26 990.784 1551.86 990.192C1552.46 989.6 1552.77 988.776 1552.77 987.72V980.736C1552.77 979.696 1552.46 978.88 1551.86 978.288C1551.26 977.696 1550.44 977.4 1549.38 977.4H1547.01V991.08ZM1559.55 993V991.032H1563.13V977.448H1559.55V975.48H1568.91V977.448H1565.34V991.032H1568.91V993H1559.55ZM1573.58 993V975.48H1576.46L1581.81 990.48C1581.78 990.08 1581.74 989.592 1581.69 989.016C1581.66 988.424 1581.63 987.808 1581.6 987.168C1581.58 986.512 1581.57 985.896 1581.57 985.32V975.48H1583.66V993H1580.78L1575.45 978C1575.49 978.384 1575.52 978.872 1575.55 979.464C1575.58 980.04 1575.61 980.656 1575.62 981.312C1575.65 981.952 1575.67 982.568 1575.67 983.16V993H1573.58ZM1593.01 993.24C1592.4 993.24 1591.92 993.064 1591.55 992.712C1591.2 992.36 1591.02 991.888 1591.02 991.296C1591.02 990.672 1591.2 990.176 1591.55 989.808C1591.92 989.44 1592.4 989.256 1593.01 989.256C1593.62 989.256 1594.1 989.44 1594.45 989.808C1594.82 990.176 1595 990.672 1595 991.296C1595 991.888 1594.82 992.36 1594.45 992.712C1594.1 993.064 1593.62 993.24 1593.01 993.24ZM1607.5 993.24C1606.44 993.24 1605.52 993.04 1604.74 992.64C1603.97 992.24 1603.37 991.664 1602.94 990.912C1602.52 990.144 1602.32 989.24 1602.32 988.2V980.28C1602.32 979.224 1602.52 978.32 1602.94 977.568C1603.37 976.816 1603.97 976.24 1604.74 975.84C1605.52 975.44 1606.44 975.24 1607.5 975.24C1608.56 975.24 1609.47 975.448 1610.24 975.864C1611 976.264 1611.6 976.84 1612.01 977.592C1612.43 978.344 1612.64 979.24 1612.64 980.28H1610.48C1610.48 979.288 1610.21 978.528 1609.68 978C1609.17 977.456 1608.44 977.184 1607.5 977.184C1606.56 977.184 1605.81 977.448 1605.27 977.976C1604.74 978.504 1604.48 979.264 1604.48 980.256V988.2C1604.48 989.192 1604.74 989.96 1605.27 990.504C1605.81 991.032 1606.56 991.296 1607.5 991.296C1608.44 991.296 1609.17 991.032 1609.68 990.504C1610.21 989.96 1610.48 989.192 1610.48 988.2H1612.64C1612.64 989.224 1612.43 990.12 1612.01 990.888C1611.6 991.64 1611 992.224 1610.24 992.64C1609.47 993.04 1608.56 993.24 1607.5 993.24ZM1621.79 993.24C1620.74 993.24 1619.83 993.04 1619.06 992.64C1618.31 992.24 1617.72 991.664 1617.31 990.912C1616.91 990.144 1616.71 989.24 1616.71 988.2V980.28C1616.71 979.224 1616.91 978.32 1617.31 977.568C1617.72 976.816 1618.31 976.24 1619.06 975.84C1619.83 975.44 1620.74 975.24 1621.79 975.24C1622.85 975.24 1623.75 975.44 1624.51 975.84C1625.27 976.24 1625.86 976.816 1626.26 977.568C1626.67 978.32 1626.88 979.216 1626.88 980.256V988.2C1626.88 989.24 1626.67 990.144 1626.26 990.912C1625.86 991.664 1625.27 992.24 1624.51 992.64C1623.75 993.04 1622.85 993.24 1621.79 993.24ZM1621.79 991.296C1622.74 991.296 1623.46 991.032 1623.95 990.504C1624.47 989.96 1624.72 989.192 1624.72 988.2V980.28C1624.72 979.288 1624.47 978.528 1623.95 978C1623.46 977.456 1622.74 977.184 1621.79 977.184C1620.87 977.184 1620.15 977.456 1619.63 978C1619.12 978.528 1618.87 979.288 1618.87 980.28V988.2C1618.87 989.192 1619.12 989.96 1619.63 990.504C1620.15 991.032 1620.87 991.296 1621.79 991.296ZM1630.81 993V975.48H1633.64L1635.46 981.144C1635.64 981.656 1635.8 982.168 1635.94 982.68C1636.09 983.176 1636.19 983.56 1636.26 983.832C1636.34 983.56 1636.44 983.176 1636.57 982.68C1636.7 982.168 1636.84 981.648 1637 981.12L1638.73 975.48H1641.56V993H1639.45V986.64C1639.45 985.936 1639.47 985.136 1639.52 984.24C1639.57 983.344 1639.63 982.432 1639.71 981.504C1639.79 980.56 1639.87 979.664 1639.95 978.816C1640.05 977.952 1640.13 977.2 1640.19 976.56L1637.36 985.32H1635.08L1632.22 976.56C1632.3 977.184 1632.38 977.912 1632.46 978.744C1632.54 979.56 1632.62 980.432 1632.68 981.36C1632.74 982.272 1632.8 983.184 1632.85 984.096C1632.9 985.008 1632.92 985.856 1632.92 986.64V993H1630.81ZM1645.18 995.64L1653.7 973.08H1655.98L1647.46 995.64H1645.18ZM1660.29 993V991.032H1663.86V977.448H1660.29V975.48H1669.65V977.448H1666.07V991.032H1669.65V993H1660.29ZM1674.32 993V975.48H1677.2L1682.55 990.48C1682.52 990.08 1682.48 989.592 1682.43 989.016C1682.4 988.424 1682.36 987.808 1682.33 987.168C1682.32 986.512 1682.31 985.896 1682.31 985.32V975.48H1684.4V993H1681.52L1676.19 978C1676.22 978.384 1676.25 978.872 1676.28 979.464C1676.32 980.04 1676.34 980.656 1676.36 981.312C1676.39 981.952 1676.4 982.568 1676.4 983.16V993H1674.32ZM1688.35 995.64L1696.87 973.08H1699.15L1690.63 995.64H1688.35ZM1708.23 993.24C1707.18 993.24 1706.26 993.04 1705.47 992.64C1704.71 992.24 1704.11 991.664 1703.67 990.912C1703.26 990.144 1703.05 989.24 1703.05 988.2V980.28C1703.05 979.224 1703.26 978.32 1703.67 977.568C1704.11 976.816 1704.71 976.24 1705.47 975.84C1706.26 975.44 1707.18 975.24 1708.23 975.24C1709.29 975.24 1710.2 975.448 1710.97 975.864C1711.74 976.264 1712.33 976.84 1712.75 977.592C1713.16 978.344 1713.37 979.24 1713.37 980.28H1711.21C1711.21 979.288 1710.95 978.528 1710.42 978C1709.91 977.456 1709.18 977.184 1708.23 977.184C1707.29 977.184 1706.55 977.448 1706 977.976C1705.47 978.504 1705.21 979.264 1705.21 980.256V988.2C1705.21 989.192 1705.47 989.96 1706 990.504C1706.55 991.048 1707.29 991.32 1708.23 991.32C1709.18 991.32 1709.91 991.048 1710.42 990.504C1710.95 989.96 1711.21 989.192 1711.21 988.2V986.04H1707.66V984.072H1713.37V988.2C1713.37 989.224 1713.16 990.12 1712.75 990.888C1712.33 991.64 1711.74 992.224 1710.97 992.64C1710.2 993.04 1709.29 993.24 1708.23 993.24ZM1717.56 993V975.48H1719.72V982.968H1725.34V975.48H1727.5V993H1725.34V984.936H1719.72V993H1717.56ZM1730.92 993L1735.48 975.48H1738.38L1742.92 993H1740.73L1739.58 988.344H1734.28L1733.13 993H1730.92ZM1734.71 986.52H1739.13L1737.78 981.12C1737.53 980.096 1737.33 979.24 1737.18 978.552C1737.04 977.864 1736.95 977.416 1736.92 977.208C1736.89 977.416 1736.8 977.864 1736.65 978.552C1736.51 979.24 1736.31 980.088 1736.05 981.096L1734.71 986.52ZM1751.41 993.24C1750.25 993.24 1749.26 993.048 1748.43 992.664C1747.61 992.28 1746.98 991.728 1746.53 991.008C1746.09 990.288 1745.85 989.432 1745.84 988.44H1748C1748 989.32 1748.29 990.016 1748.89 990.528C1749.49 991.04 1750.33 991.296 1751.41 991.296C1752.41 991.296 1753.2 991.048 1753.76 990.552C1754.33 990.056 1754.62 989.368 1754.62 988.488C1754.62 987.784 1754.43 987.168 1754.05 986.64C1753.68 986.112 1753.14 985.744 1752.44 985.536L1750.06 984.792C1748.86 984.424 1747.93 983.808 1747.28 982.944C1746.64 982.08 1746.32 981.064 1746.32 979.896C1746.32 978.952 1746.53 978.136 1746.94 977.448C1747.37 976.744 1747.97 976.2 1748.74 975.816C1749.51 975.416 1750.41 975.216 1751.45 975.216C1752.99 975.216 1754.22 975.648 1755.15 976.512C1756.08 977.36 1756.55 978.496 1756.57 979.92H1754.41C1754.41 979.056 1754.14 978.384 1753.61 977.904C1753.1 977.408 1752.37 977.16 1751.43 977.16C1750.5 977.16 1749.77 977.384 1749.25 977.832C1748.73 978.28 1748.48 978.904 1748.48 979.704C1748.48 980.424 1748.67 981.048 1749.05 981.576C1749.44 982.104 1749.99 982.48 1750.71 982.704L1753.11 983.472C1754.28 983.84 1755.18 984.464 1755.82 985.344C1756.46 986.224 1756.78 987.256 1756.78 988.44C1756.78 989.4 1756.56 990.24 1756.11 990.96C1755.66 991.68 1755.03 992.24 1754.21 992.64C1753.41 993.04 1752.48 993.24 1751.41 993.24ZM1765.8 993.24C1764.64 993.24 1763.65 993.048 1762.82 992.664C1762 992.28 1761.37 991.728 1760.92 991.008C1760.48 990.288 1760.24 989.432 1760.23 988.44H1762.39C1762.39 989.32 1762.68 990.016 1763.28 990.528C1763.88 991.04 1764.72 991.296 1765.8 991.296C1766.8 991.296 1767.59 991.048 1768.15 990.552C1768.72 990.056 1769.01 989.368 1769.01 988.488C1769.01 987.784 1768.82 987.168 1768.44 986.64C1768.07 986.112 1767.53 985.744 1766.83 985.536L1764.45 984.792C1763.25 984.424 1762.32 983.808 1761.67 982.944C1761.03 982.08 1760.71 981.064 1760.71 979.896C1760.71 978.952 1760.92 978.136 1761.33 977.448C1761.76 976.744 1762.36 976.2 1763.13 975.816C1763.9 975.416 1764.8 975.216 1765.84 975.216C1767.38 975.216 1768.61 975.648 1769.54 976.512C1770.47 977.36 1770.94 978.496 1770.96 979.92H1768.8C1768.8 979.056 1768.53 978.384 1768 977.904C1767.49 977.408 1766.76 977.16 1765.82 977.16C1764.89 977.16 1764.16 977.384 1763.64 977.832C1763.12 978.28 1762.87 978.904 1762.87 979.704C1762.87 980.424 1763.06 981.048 1763.44 981.576C1763.83 982.104 1764.38 982.48 1765.1 982.704L1767.5 983.472C1768.67 983.84 1769.57 984.464 1770.21 985.344C1770.85 986.224 1771.17 987.256 1771.17 988.44C1771.17 989.4 1770.95 990.24 1770.5 990.96C1770.05 991.68 1769.42 992.24 1768.6 992.64C1767.8 993.04 1766.87 993.24 1765.8 993.24ZM1775.12 993V975.48H1780.09C1781.69 975.48 1782.94 975.88 1783.83 976.68C1784.75 977.48 1785.2 978.592 1785.2 980.016C1785.2 980.816 1785.03 981.512 1784.7 982.104C1784.36 982.696 1783.88 983.152 1783.26 983.472C1782.65 983.792 1781.91 983.944 1781.05 983.928V983.568C1781.98 983.552 1782.78 983.728 1783.45 984.096C1784.14 984.464 1784.67 984.992 1785.03 985.68C1785.42 986.368 1785.61 987.184 1785.61 988.128C1785.61 989.12 1785.4 989.984 1784.99 990.72C1784.57 991.456 1783.98 992.024 1783.21 992.424C1782.44 992.808 1781.52 993 1780.45 993H1775.12ZM1777.23 991.056H1780.21C1781.22 991.056 1782.01 990.792 1782.59 990.264C1783.18 989.72 1783.47 988.984 1783.47 988.056C1783.47 987.096 1783.18 986.32 1782.59 985.728C1782.01 985.12 1781.22 984.816 1780.21 984.816H1777.23V991.056ZM1777.23 982.944H1780.07C1780.99 982.944 1781.72 982.696 1782.25 982.2C1782.79 981.704 1783.07 981.032 1783.07 980.184C1783.07 979.336 1782.8 978.664 1782.27 978.168C1781.75 977.672 1781.02 977.424 1780.09 977.424H1777.23V982.944ZM1794.48 993.24C1793.43 993.24 1792.51 993.04 1791.75 992.64C1790.99 992.24 1790.41 991.664 1789.99 990.912C1789.59 990.144 1789.39 989.24 1789.39 988.2V980.28C1789.39 979.224 1789.59 978.32 1789.99 977.568C1790.41 976.816 1790.99 976.24 1791.75 975.84C1792.51 975.44 1793.43 975.24 1794.48 975.24C1795.54 975.24 1796.44 975.44 1797.19 975.84C1797.96 976.24 1798.55 976.816 1798.95 977.568C1799.36 978.32 1799.57 979.216 1799.57 980.256V988.2C1799.57 989.24 1799.36 990.144 1798.95 990.912C1798.55 991.664 1797.96 992.24 1797.19 992.64C1796.44 993.04 1795.54 993.24 1794.48 993.24ZM1794.48 991.296C1795.43 991.296 1796.15 991.032 1796.64 990.504C1797.15 989.96 1797.41 989.192 1797.41 988.2V980.28C1797.41 979.288 1797.15 978.528 1796.64 978C1796.15 977.456 1795.43 977.184 1794.48 977.184C1793.55 977.184 1792.83 977.456 1792.32 978C1791.81 978.528 1791.55 979.288 1791.55 980.28V988.2C1791.55 989.192 1791.81 989.96 1792.32 990.504C1792.83 991.032 1793.55 991.296 1794.48 991.296ZM1803.5 993V975.48H1806.33L1808.15 981.144C1808.33 981.656 1808.49 982.168 1808.63 982.68C1808.78 983.176 1808.88 983.56 1808.94 983.832C1809.02 983.56 1809.13 983.176 1809.26 982.68C1809.38 982.168 1809.53 981.648 1809.69 981.12L1811.42 975.48H1814.25V993H1812.14V986.64C1812.14 985.936 1812.16 985.136 1812.21 984.24C1812.26 983.344 1812.32 982.432 1812.4 981.504C1812.48 980.56 1812.56 979.664 1812.64 978.816C1812.74 977.952 1812.82 977.2 1812.88 976.56L1810.05 985.32H1807.77L1804.91 976.56C1804.99 977.184 1805.07 977.912 1805.15 978.744C1805.23 979.56 1805.3 980.432 1805.37 981.36C1805.43 982.272 1805.49 983.184 1805.54 984.096C1805.58 985.008 1805.61 985.856 1805.61 986.64V993H1803.5ZM1818.29 993V975.48H1823.26C1824.86 975.48 1826.11 975.88 1827.01 976.68C1827.92 977.48 1828.37 978.592 1828.37 980.016C1828.37 980.816 1828.21 981.512 1827.87 982.104C1827.53 982.696 1827.05 983.152 1826.43 983.472C1825.82 983.792 1825.09 983.944 1824.22 983.928V983.568C1825.15 983.552 1825.95 983.728 1826.62 984.096C1827.31 984.464 1827.84 984.992 1828.21 985.68C1828.59 986.368 1828.78 987.184 1828.78 988.128C1828.78 989.12 1828.57 989.984 1828.16 990.72C1827.74 991.456 1827.15 992.024 1826.38 992.424C1825.61 992.808 1824.69 993 1823.62 993H1818.29ZM1820.41 991.056H1823.38C1824.39 991.056 1825.18 990.792 1825.76 990.264C1826.35 989.72 1826.65 988.984 1826.65 988.056C1826.65 987.096 1826.35 986.32 1825.76 985.728C1825.18 985.12 1824.39 984.816 1823.38 984.816H1820.41V991.056ZM1820.41 982.944H1823.24C1824.17 982.944 1824.89 982.696 1825.42 982.2C1825.97 981.704 1826.24 981.032 1826.24 980.184C1826.24 979.336 1825.97 978.664 1825.45 978.168C1824.92 977.672 1824.19 977.424 1823.26 977.424H1820.41V982.944ZM1832.25 995.64L1840.77 973.08H1843.05L1834.53 995.64H1832.25Z" fill="#EBDBB2"/>
<path d="M1298 997.32H1844.85V998.52H1298V997.32Z" fill="#EBDBB2"/>
<a href="https://www.linkedin.com/in/ghassbomb/">
<rect fill="black" fill-opacity="0" y="0.16" width="546.853" height="31.68"/>
</a>
<path d="M786.08 947.64V925.08H793.4V928.44H789.68V944.28H793.4V947.64H786.08ZM812.701 945V927.48H823.501V930.552H816.229V934.488H822.661V937.56H816.229V941.928H823.501V945H812.701ZM826.18 945V927.48H830.236L831.844 933C832.02 933.576 832.148 934.08 832.228 934.512C832.324 934.944 832.38 935.248 832.396 935.424C832.412 935.248 832.46 934.944 832.54 934.512C832.636 934.08 832.764 933.576 832.924 933L834.508 927.48H838.564V945H835.276V940.2C835.276 939.32 835.292 938.4 835.324 937.44C835.372 936.464 835.428 935.496 835.492 934.536C835.556 933.576 835.628 932.68 835.708 931.848C835.788 931 835.86 930.264 835.924 929.64L833.908 937.56H830.86L828.748 929.64C828.828 930.232 828.908 930.944 828.988 931.776C829.068 932.592 829.14 933.48 829.204 934.44C829.284 935.384 829.348 936.352 829.396 937.344C829.444 938.336 829.468 939.288 829.468 940.2V945H826.18ZM840.163 945L844.459 927.48H849.019L853.363 945H849.691L848.851 941.04H844.675L843.835 945H840.163ZM845.275 938.16H848.227L847.387 933.936C847.275 933.328 847.155 932.728 847.027 932.136C846.915 931.528 846.827 931.056 846.763 930.72C846.699 931.056 846.611 931.52 846.499 932.112C846.403 932.704 846.291 933.304 846.163 933.912L845.275 938.16ZM855.873 945V941.88H859.353V930.6H855.873V927.48H866.433V930.6H862.953V941.88H866.433V945H855.873ZM870.624 945V927.48H874.224V941.64H881.304V945H870.624ZM900.125 947.64V944.28H903.845V928.44H900.125V925.08H907.445V947.64H900.125Z" fill="#EBDBB2"/>
<path d="M789.296 993.24C788.24 993.24 787.32 993.04 786.536 992.64C785.768 992.24 785.168 991.664 784.736 990.912C784.32 990.144 784.112 989.24 784.112 988.2V980.28C784.112 979.224 784.32 978.32 784.736 977.568C785.168 976.816 785.768 976.24 786.536 975.84C787.32 975.44 788.24 975.24 789.296 975.24C790.352 975.24 791.264 975.448 792.032 975.864C792.8 976.264 793.392 976.84 793.808 977.592C794.224 978.344 794.432 979.24 794.432 980.28H792.272C792.272 979.288 792.008 978.528 791.48 978C790.968 977.456 790.24 977.184 789.296 977.184C788.352 977.184 787.608 977.448 787.064 977.976C786.536 978.504 786.272 979.264 786.272 980.256V988.2C786.272 989.192 786.536 989.96 787.064 990.504C787.608 991.048 788.352 991.32 789.296 991.32C790.24 991.32 790.968 991.048 791.48 990.504C792.008 989.96 792.272 989.192 792.272 988.2V986.04H788.72V984.072H794.432V988.2C794.432 989.224 794.224 990.12 793.808 990.888C793.392 991.64 792.8 992.224 792.032 992.64C791.264 993.04 790.352 993.24 789.296 993.24ZM798.623 993V975.48H800.783V982.968H806.399V975.48H808.559V993H806.399V984.936H800.783V993H798.623ZM811.981 993L816.541 975.48H819.445L823.981 993H821.797L820.645 988.344H815.341L814.189 993H811.981ZM815.773 986.52H820.189L818.845 981.12C818.589 980.096 818.389 979.24 818.245 978.552C818.101 977.864 818.013 977.416 817.981 977.208C817.949 977.416 817.861 977.864 817.717 978.552C817.573 979.24 817.373 980.088 817.117 981.096L815.773 986.52ZM832.468 993.24C831.316 993.24 830.324 993.048 829.492 992.664C828.676 992.28 828.044 991.728 827.596 991.008C827.148 990.288 826.916 989.432 826.9 988.44H829.06C829.06 989.32 829.356 990.016 829.948 990.528C830.556 991.04 831.396 991.296 832.468 991.296C833.476 991.296 834.26 991.048 834.82 990.552C835.396 990.056 835.684 989.368 835.684 988.488C835.684 987.784 835.492 987.168 835.108 986.64C834.74 986.112 834.204 985.744 833.5 985.536L831.124 984.792C829.924 984.424 828.996 983.808 828.34 982.944C827.7 982.08 827.38 981.064 827.38 979.896C827.38 978.952 827.588 978.136 828.004 977.448C828.436 976.744 829.036 976.2 829.804 975.816C830.572 975.416 831.476 975.216 832.516 975.216C834.052 975.216 835.284 975.648 836.212 976.512C837.14 977.36 837.612 978.496 837.628 979.92H835.468C835.468 979.056 835.204 978.384 834.676 977.904C834.164 977.408 833.436 977.16 832.492 977.16C831.564 977.16 830.836 977.384 830.308 977.832C829.796 978.28 829.54 978.904 829.54 979.704C829.54 980.424 829.732 981.048 830.116 981.576C830.5 982.104 831.052 982.48 831.772 982.704L834.172 983.472C835.34 983.84 836.244 984.464 836.884 985.344C837.524 986.224 837.844 987.256 837.844 988.44C837.844 989.4 837.62 990.24 837.172 990.96C836.724 991.68 836.092 992.24 835.276 992.64C834.476 993.04 833.54 993.24 832.468 993.24ZM846.859 993.24C845.707 993.24 844.715 993.048 843.883 992.664C843.067 992.28 842.435 991.728 841.987 991.008C841.539 990.288 841.307 989.432 841.291 988.44H843.451C843.451 989.32 843.747 990.016 844.339 990.528C844.947 991.04 845.787 991.296 846.859 991.296C847.867 991.296 848.651 991.048 849.211 990.552C849.787 990.056 850.075 989.368 850.075 988.488C850.075 987.784 849.883 987.168 849.499 986.64C849.131 986.112 848.595 985.744 847.891 985.536L845.515 984.792C844.315 984.424 843.387 983.808 842.73 982.944C842.091 982.08 841.771 981.064 841.771 979.896C841.771 978.952 841.979 978.136 842.395 977.448C842.827 976.744 843.427 976.2 844.195 975.816C844.963 975.416 845.867 975.216 846.907 975.216C848.443 975.216 849.675 975.648 850.603 976.512C851.531 977.36 852.003 978.496 852.019 979.92H849.859C849.859 979.056 849.595 978.384 849.067 977.904C848.555 977.408 847.827 977.16 846.883 977.16C845.955 977.16 845.227 977.384 844.699 977.832C844.187 978.28 843.931 978.904 843.931 979.704C843.931 980.424 844.123 981.048 844.507 981.576C844.891 982.104 845.443 982.48 846.163 982.704L848.563 983.472C849.731 983.84 850.635 984.464 851.275 985.344C851.915 986.224 852.234 987.256 852.234 988.44C852.234 989.4 852.01 990.24 851.562 990.96C851.115 991.68 850.483 992.24 849.667 992.64C848.867 993.04 847.931 993.24 846.859 993.24ZM861.153 993.24C860.545 993.24 860.057 993.064 859.689 992.712C859.337 992.36 859.161 991.888 859.161 991.296C859.161 990.672 859.337 990.176 859.689 989.808C860.057 989.44 860.545 989.256 861.153 989.256C861.761 989.256 862.241 989.44 862.593 989.808C862.961 990.176 863.145 990.672 863.145 991.296C863.145 991.888 862.961 992.36 862.593 992.712C862.241 993.064 861.761 993.24 861.153 993.24ZM875.64 993.24C874.488 993.24 873.496 993.048 872.664 992.664C871.848 992.28 871.216 991.728 870.768 991.008C870.32 990.288 870.088 989.432 870.072 988.44H872.232C872.232 989.32 872.528 990.016 873.12 990.528C873.728 991.04 874.568 991.296 875.64 991.296C876.648 991.296 877.432 991.048 877.992 990.552C878.568 990.056 878.856 989.368 878.856 988.488C878.856 987.784 878.664 987.168 878.28 986.64C877.912 986.112 877.376 985.744 876.672 985.536L874.296 984.792C873.096 984.424 872.168 983.808 871.512 982.944C870.872 982.08 870.552 981.064 870.552 979.896C870.552 978.952 870.76 978.136 871.176 977.448C871.608 976.744 872.208 976.2 872.976 975.816C873.744 975.416 874.648 975.216 875.688 975.216C877.224 975.216 878.456 975.648 879.384 976.512C880.312 977.36 880.784 978.496 880.8 979.92H878.64C878.64 979.056 878.376 978.384 877.848 977.904C877.336 977.408 876.608 977.16 875.664 977.16C874.736 977.16 874.008 977.384 873.48 977.832C872.968 978.28 872.712 978.904 872.712 979.704C872.712 980.424 872.904 981.048 873.288 981.576C873.672 982.104 874.224 982.48 874.944 982.704L877.344 983.472C878.512 983.84 879.416 984.464 880.056 985.344C880.696 986.224 881.016 987.256 881.016 988.44C881.016 989.4 880.792 990.24 880.344 990.96C879.896 991.68 879.264 992.24 878.448 992.64C877.648 993.04 876.712 993.24 875.64 993.24ZM884.966 993V975.48H887.126V982.968H892.742V975.48H894.902V993H892.742V984.936H887.126V993H884.966ZM898.325 993L902.885 975.48H905.789L910.325 993H908.141L906.989 988.344H901.685L900.533 993H898.325ZM902.117 986.52H906.533L905.189 981.12C904.933 980.096 904.733 979.24 904.589 978.552C904.445 977.864 904.357 977.416 904.325 977.208C904.293 977.416 904.205 977.864 904.061 978.552C903.917 979.24 903.717 980.088 903.461 981.096L902.117 986.52ZM913.748 993V975.48H915.908V982.968H921.524V975.48H923.684V993H921.524V984.936H915.908V993H913.748ZM927.946 993V990.84L935.842 977.448H928.066V975.48H938.026V977.64L930.13 991.032H938.266V993H927.946ZM941.497 993L946.057 975.48H948.961L953.497 993H951.313L950.161 988.344H944.857L943.705 993H941.497ZM945.289 986.52H949.705L948.361 981.12C948.105 980.096 947.905 979.24 947.761 978.552C947.617 977.864 947.529 977.416 947.497 977.208C947.465 977.416 947.377 977.864 947.233 978.552C947.089 979.24 946.889 980.088 946.633 981.096L945.289 986.52ZM956.896 993V975.48H961.432C962.568 975.48 963.544 975.696 964.36 976.128C965.192 976.56 965.832 977.168 966.28 977.952C966.744 978.736 966.976 979.664 966.976 980.736V987.72C966.976 988.792 966.744 989.728 966.28 990.528C965.832 991.312 965.192 991.92 964.36 992.352C963.544 992.784 962.568 993 961.432 993H956.896ZM959.056 991.08H961.432C962.488 991.08 963.312 990.784 963.904 990.192C964.512 989.6 964.816 988.776 964.816 987.72V980.736C964.816 979.696 964.512 978.88 963.904 978.288C963.312 977.696 962.488 977.4 961.432 977.4H959.056V991.08ZM976.878 997.32C975.518 997.32 974.334 997.032 973.326 996.456C972.318 995.896 971.534 995.088 970.974 994.032C970.43 992.992 970.158 991.768 970.158 990.36V982.2C970.158 980.76 970.414 979.52 970.926 978.48C971.454 977.44 972.198 976.64 973.158 976.08C974.134 975.52 975.294 975.24 976.638 975.24C977.854 975.24 978.902 975.48 979.782 975.96C980.662 976.424 981.334 977.096 981.798 977.976C982.278 978.856 982.518 979.904 982.518 981.12V991.44H980.814V990.12H980.142L980.598 989.64C980.598 990.248 980.366 990.744 979.902 991.128C979.438 991.496 978.822 991.68 978.054 991.68C977.014 991.68 976.214 991.368 975.654 990.744C975.11 990.104 974.838 989.176 974.838 987.96V985.08C974.838 983.864 975.11 982.944 975.654 982.32C976.214 981.68 977.014 981.36 978.054 981.36C978.822 981.36 979.438 981.552 979.902 981.936C980.366 982.304 980.598 982.8 980.598 983.424L980.262 982.92H980.838L980.598 981.24V981.12C980.598 980.208 980.446 979.44 980.142 978.816C979.838 978.192 979.39 977.72 978.798 977.4C978.222 977.08 977.502 976.92 976.638 976.92C975.198 976.92 974.078 977.384 973.278 978.312C972.478 979.24 972.078 980.536 972.078 982.2V990.36C972.078 991.96 972.502 993.216 973.35 994.128C974.214 995.056 975.39 995.52 976.878 995.52H978.558V997.32H976.878ZM978.678 990.168C979.334 990.168 979.814 989.968 980.118 989.568C980.438 989.168 980.598 988.552 980.598 987.72V985.056C980.598 984.304 980.438 983.752 980.118 983.4C979.814 983.048 979.334 982.872 978.678 982.872C978.038 982.872 977.558 983.056 977.238 983.424C976.918 983.776 976.758 984.328 976.758 985.08V987.96C976.758 988.712 976.918 989.272 977.238 989.64C977.558 989.992 978.038 990.168 978.678 990.168ZM990.765 993.24C989.709 993.24 988.789 993.04 988.005 992.64C987.237 992.24 986.637 991.664 986.205 990.912C985.789 990.144 985.581 989.24 985.581 988.2V980.28C985.581 979.224 985.789 978.32 986.205 977.568C986.637 976.816 987.237 976.24 988.005 975.84C988.789 975.44 989.709 975.24 990.765 975.24C991.821 975.24 992.733 975.448 993.501 975.864C994.269 976.264 994.861 976.84 995.277 977.592C995.693 978.344 995.901 979.24 995.901 980.28H993.741C993.741 979.288 993.477 978.528 992.949 978C992.437 977.456 991.709 977.184 990.765 977.184C989.821 977.184 989.077 977.448 988.533 977.976C988.005 978.504 987.741 979.264 987.741 980.256V988.2C987.741 989.192 988.005 989.96 988.533 990.504C989.077 991.048 989.821 991.32 990.765 991.32C991.709 991.32 992.437 991.048 992.949 990.504C993.477 989.96 993.741 989.192 993.741 988.2V986.04H990.189V984.072H995.901V988.2C995.901 989.224 995.693 990.12 995.277 990.888C994.861 991.64 994.269 992.224 993.501 992.64C992.733 993.04 991.821 993.24 990.765 993.24ZM999.683 993V975.48H1002.52L1004.34 981.144C1004.52 981.656 1004.68 982.168 1004.82 982.68C1004.96 983.176 1005.07 983.56 1005.13 983.832C1005.21 983.56 1005.32 983.176 1005.44 982.68C1005.57 982.168 1005.72 981.648 1005.88 981.12L1007.6 975.48H1010.44V993H1008.32V986.64C1008.32 985.936 1008.35 985.136 1008.4 984.24C1008.44 983.344 1008.51 982.432 1008.59 981.504C1008.67 980.56 1008.75 979.664 1008.83 978.816C1008.92 977.952 1009 977.2 1009.07 976.56L1006.24 985.32H1003.96L1001.1 976.56C1001.18 977.184 1001.26 977.912 1001.34 978.744C1001.42 979.56 1001.49 980.432 1001.56 981.36C1001.62 982.272 1001.68 983.184 1001.72 984.096C1001.77 985.008 1001.8 985.856 1001.8 986.64V993H999.683ZM1013.45 993L1018.01 975.48H1020.91L1025.45 993H1023.27L1022.11 988.344H1016.81L1015.66 993H1013.45ZM1017.24 986.52H1021.66L1020.31 981.12C1020.06 980.096 1019.86 979.24 1019.71 978.552C1019.57 977.864 1019.48 977.416 1019.45 977.208C1019.42 977.416 1019.33 977.864 1019.19 978.552C1019.04 979.24 1018.84 980.088 1018.59 981.096L1017.24 986.52ZM1029.16 993V991.032H1032.74V977.448H1029.16V975.48H1038.52V977.448H1034.94V991.032H1038.52V993H1029.16ZM1043.79 993V975.48H1045.95V991.032H1053.87V993H1043.79ZM1062.62 993.24C1062.01 993.24 1061.53 993.064 1061.16 992.712C1060.81 992.36 1060.63 991.888 1060.63 991.296C1060.63 990.672 1060.81 990.176 1061.16 989.808C1061.53 989.44 1062.01 989.256 1062.62 989.256C1063.23 989.256 1063.71 989.44 1064.06 989.808C1064.43 990.176 1064.61 990.672 1064.61 991.296C1064.61 991.888 1064.43 992.36 1064.06 992.712C1063.71 993.064 1063.23 993.24 1062.62 993.24ZM1077.11 993.24C1076.05 993.24 1075.13 993.04 1074.35 992.64C1073.58 992.24 1072.98 991.664 1072.55 990.912C1072.13 990.144 1071.92 989.24 1071.92 988.2V980.28C1071.92 979.224 1072.13 978.32 1072.55 977.568C1072.98 976.816 1073.58 976.24 1074.35 975.84C1075.13 975.44 1076.05 975.24 1077.11 975.24C1078.16 975.24 1079.08 975.448 1079.84 975.864C1080.61 976.264 1081.2 976.84 1081.62 977.592C1082.04 978.344 1082.24 979.24 1082.24 980.28H1080.08C1080.08 979.288 1079.82 978.528 1079.29 978C1078.78 977.456 1078.05 977.184 1077.11 977.184C1076.16 977.184 1075.42 977.448 1074.88 977.976C1074.35 978.504 1074.08 979.264 1074.08 980.256V988.2C1074.08 989.192 1074.35 989.96 1074.88 990.504C1075.42 991.032 1076.16 991.296 1077.11 991.296C1078.05 991.296 1078.78 991.032 1079.29 990.504C1079.82 989.96 1080.08 989.192 1080.08 988.2H1082.24C1082.24 989.224 1082.04 990.12 1081.62 990.888C1081.2 991.64 1080.61 992.224 1079.84 992.64C1079.08 993.04 1078.16 993.24 1077.11 993.24ZM1091.4 993.24C1090.35 993.24 1089.44 993.04 1088.67 992.64C1087.92 992.24 1087.33 991.664 1086.92 990.912C1086.52 990.144 1086.32 989.24 1086.32 988.2V980.28C1086.32 979.224 1086.52 978.32 1086.92 977.568C1087.33 976.816 1087.92 976.24 1088.67 975.84C1089.44 975.44 1090.35 975.24 1091.4 975.24C1092.46 975.24 1093.36 975.44 1094.12 975.84C1094.88 976.24 1095.47 976.816 1095.87 977.568C1096.28 978.32 1096.49 979.216 1096.49 980.256V988.2C1096.49 989.24 1096.28 990.144 1095.87 990.912C1095.47 991.664 1094.88 992.24 1094.12 992.64C1093.36 993.04 1092.46 993.24 1091.4 993.24ZM1091.4 991.296C1092.35 991.296 1093.07 991.032 1093.56 990.504C1094.08 989.96 1094.33 989.192 1094.33 988.2V980.28C1094.33 979.288 1094.08 978.528 1093.56 978C1093.07 977.456 1092.35 977.184 1091.4 977.184C1090.48 977.184 1089.76 977.456 1089.24 978C1088.73 978.528 1088.48 979.288 1088.48 980.28V988.2C1088.48 989.192 1088.73 989.96 1089.24 990.504C1089.76 991.032 1090.48 991.296 1091.4 991.296ZM1100.42 993V975.48H1103.25L1105.07 981.144C1105.25 981.656 1105.41 982.168 1105.55 982.68C1105.7 983.176 1105.8 983.56 1105.87 983.832C1105.95 983.56 1106.05 983.176 1106.18 982.68C1106.31 982.168 1106.45 981.648 1106.61 981.12L1108.34 975.48H1111.17V993H1109.06V986.64C1109.06 985.936 1109.08 985.136 1109.13 984.24C1109.18 983.344 1109.24 982.432 1109.32 981.504C1109.4 980.56 1109.48 979.664 1109.56 978.816C1109.66 977.952 1109.74 977.2 1109.8 976.56L1106.97 985.32H1104.69L1101.83 976.56C1101.91 977.184 1101.99 977.912 1102.07 978.744C1102.15 979.56 1102.23 980.432 1102.29 981.36C1102.35 982.272 1102.41 983.184 1102.46 984.096C1102.51 985.008 1102.53 985.856 1102.53 986.64V993H1100.42Z" fill="#EBDBB2"/>
<path d="M998 698.6C994.92 698.6 992.24 698.08 989.96 697.04C987.68 696 985.92 694.54 984.68 692.66C983.44 690.78 982.82 688.56 982.82 686H991.82C991.82 687.48 992.38 688.66 993.5 689.54C994.66 690.38 996.22 690.8 998.18 690.8C1000.06 690.8 1001.52 690.38 1002.56 689.54C1003.64 688.7 1004.18 687.54 1004.18 686.06C1004.18 684.78 1003.78 683.68 1002.98 682.76C1002.18 681.84 1001.06 681.22 999.62 680.9L995.18 679.88C991.46 679 988.56 677.38 986.48 675.02C984.44 672.62 983.42 669.7 983.42 666.26C983.42 663.7 984 661.48 985.16 659.6C986.36 657.68 988.04 656.2 990.2 655.16C992.36 654.12 994.92 653.6 997.88 653.6C1002.36 653.6 1005.9 654.72 1008.5 656.96C1011.14 659.16 1012.46 662.14 1012.46 665.9H1003.46C1003.46 664.5 1002.96 663.4 1001.96 662.6C1001 661.8 999.6 661.4 997.76 661.4C996.04 661.4 994.72 661.8 993.8 662.6C992.88 663.36 992.42 664.46 992.42 665.9C992.42 667.18 992.78 668.28 993.5 669.2C994.26 670.08 995.32 670.68 996.68 671L1001.36 672.08C1005.24 672.96 1008.18 674.56 1010.18 676.88C1012.18 679.16 1013.18 682.08 1013.18 685.64C1013.18 688.2 1012.54 690.46 1011.26 692.42C1010.02 694.38 1008.26 695.9 1005.98 696.98C1003.74 698.06 1001.08 698.6 998 698.6ZM1029.48 698V662.6H1018.38V654.2H1049.58V662.6H1038.48V698H1029.48ZM1069.95 698.6C1065.51 698.6 1061.99 697.4 1059.39 695C1056.83 692.6 1055.55 689.32 1055.55 685.16V654.2H1064.55V685.1C1064.55 686.94 1065.01 688.36 1065.93 689.36C1066.89 690.32 1068.23 690.8 1069.95 690.8C1071.63 690.8 1072.95 690.32 1073.91 689.36C1074.87 688.36 1075.35 686.94 1075.35 685.1V654.2H1084.35V685.16C1084.35 689.28 1083.05 692.56 1080.45 695C1077.89 697.4 1074.39 698.6 1069.95 698.6ZM1091.71 698V654.2H1105.93C1108.97 654.2 1111.61 654.78 1113.85 655.94C1116.13 657.1 1117.89 658.74 1119.13 660.86C1120.41 662.94 1121.05 665.4 1121.05 668.24V683.9C1121.05 686.7 1120.41 689.16 1119.13 691.28C1117.89 693.4 1116.13 695.06 1113.85 696.26C1111.61 697.42 1108.97 698 1105.93 698H1091.71ZM1100.71 689.6H1105.93C1107.77 689.6 1109.25 689.08 1110.37 688.04C1111.49 687 1112.05 685.62 1112.05 683.9V668.24C1112.05 666.56 1111.49 665.2 1110.37 664.16C1109.25 663.12 1107.77 662.6 1105.93 662.6H1100.71V689.6ZM1128.71 698V654.2H1155.71V661.88H1137.53V671.72H1153.61V679.4H1137.53V690.32H1155.71V698H1128.71ZM1163.48 698V654.2H1173.98L1185.32 688.1C1185.2 686.62 1185.06 684.92 1184.9 683C1184.74 681.04 1184.6 679.1 1184.48 677.18C1184.4 675.22 1184.36 673.56 1184.36 672.2V654.2H1192.28V698H1181.78L1170.56 664.1C1170.68 665.38 1170.8 666.9 1170.92 668.66C1171.04 670.42 1171.14 672.2 1171.22 674C1171.34 675.8 1171.4 677.4 1171.4 678.8V698H1163.48ZM1209.36 698V662.6H1198.26V654.2H1229.46V662.6H1218.36V698H1209.36ZM1249.84 698.6C1248 698.6 1246.52 698.06 1245.4 696.98C1244.32 695.86 1243.78 694.38 1243.78 692.54C1243.78 690.66 1244.32 689.18 1245.4 688.1C1246.52 687.02 1248 686.48 1249.84 686.48C1251.72 686.48 1253.2 687.02 1254.28 688.1C1255.36 689.18 1255.9 690.66 1255.9 692.54C1255.9 694.38 1255.36 695.86 1254.28 696.98C1253.2 698.06 1251.72 698.6 1249.84 698.6Z" fill="#EBDBB2"/>
<path d="M727.976 565.88C713.576 565.88 701.096 563.48 690.536 558.68C679.976 553.88 671.816 547.064 666.056 538.232C660.488 529.208 657.608 518.648 657.416 506.552H693.416C693.416 515.192 696.488 522.008 702.632 527C708.968 531.8 717.512 534.2 728.264 534.2C738.632 534.2 746.696 531.8 752.456 527C758.408 522.2 761.384 515.576 761.384 507.128C761.384 500.024 759.272 493.88 755.048 488.696C751.016 483.32 745.16 479.672 737.48 477.752L713.288 471.128C696.776 466.904 684.008 459.32 674.984 448.376C666.152 437.432 661.736 424.184 661.736 408.632C661.736 396.728 664.424 386.36 669.8 377.528C675.176 368.696 682.76 361.88 692.552 357.08C702.536 352.28 714.248 349.88 727.688 349.88C748.04 349.88 764.168 355.16 776.072 365.72C787.976 376.088 794.024 390.104 794.216 407.768H758.216C758.216 399.512 755.528 393.08 750.152 388.472C744.776 383.672 737.192 381.272 727.4 381.272C717.992 381.272 710.696 383.48 705.512 387.896C700.328 392.312 697.736 398.552 697.736 406.616C697.736 413.912 699.656 420.152 703.496 425.336C707.528 430.328 713.288 433.88 720.776 435.992L745.832 442.904C762.536 447.128 775.304 454.712 784.136 465.656C792.968 476.408 797.384 489.752 797.384 505.688C797.384 517.592 794.504 528.152 788.744 537.368C782.984 546.392 774.92 553.4 764.552 558.392C754.184 563.384 741.992 565.88 727.976 565.88Z" fill="#FB4934"/>
<path d="M1004.58 562L1062.47 351.76H1080.33L1138.22 562H1123.24L1107.11 501.52H1035.11L1018.98 562H1004.58ZM1038.57 488.56H1103.66L1080.9 403.6C1078.22 393.232 1076.01 384.592 1074.28 377.68C1072.74 370.576 1071.78 365.968 1071.4 363.856C1071.02 365.968 1069.96 370.576 1068.23 377.68C1066.5 384.592 1064.3 393.232 1061.61 403.6L1038.57 488.56Z" fill="#FABD2F"/>
<path d="M844.68 563V352.76H859.08V447.224H939.72V352.76H954.12V563H939.72V460.472H859.08V563H844.68Z" fill="#B8BB26"/>
<path d="M1188.68 562V351.76H1203.08V446.224H1283.72V351.76H1298.12V562H1283.72V459.472H1203.08V562H1188.68Z" fill="#83A598"/>
<path d="M1520.58 561L1578.47 350.76H1596.33L1654.22 561H1639.24L1623.11 500.52H1551.11L1534.98 561H1520.58ZM1554.57 487.56H1619.66L1596.9 402.6C1594.22 392.232 1592.01 383.592 1590.28 376.68C1588.74 369.576 1587.78 364.968 1587.4 362.856C1587.02 364.968 1585.96 369.576 1584.23 376.68C1582.5 383.592 1580.3 392.232 1577.61 402.6L1554.57 487.56Z" fill="#8EC07C"/>
<path d="M1704.68 560V349.76H1750.76C1763.82 349.76 1775.14 352.448 1784.74 357.824C1794.54 363.008 1802.12 370.4 1807.5 380C1812.87 389.408 1815.56 400.448 1815.56 413.12V496.64C1815.56 509.312 1812.87 520.448 1807.5 530.048C1802.12 539.456 1794.54 546.848 1784.74 552.224C1775.14 557.408 1763.82 560 1750.76 560H1704.68ZM1719.08 546.752H1750.76C1765.93 546.752 1778.12 542.24 1787.34 533.216C1796.55 524 1801.16 511.808 1801.16 496.64V413.12C1801.16 398.144 1796.46 386.048 1787.05 376.832C1777.83 367.616 1765.74 363.008 1750.76 363.008H1719.08V546.752Z" fill="#FE8019"/>
<path d="M1355.21 562V547.6L1457.74 365.008H1356.36V351.76H1471.56V368.176L1369.9 548.752H1475.3V562H1355.21Z" fill="#D3869B"/>
<path d="M167.552 286.88C153.536 286.88 141.248 284.288 130.688 279.104C120.128 273.728 111.872 266.336 105.92 256.928C100.16 247.328 97.28 236.192 97.28 223.52V134.24C97.28 121.376 100.16 110.24 105.92 100.832C111.872 91.424 120.128 84.128 130.688 78.944C141.248 73.568 153.536 70.88 167.552 70.88C181.76 70.88 194.048 73.568 204.416 78.944C214.976 84.128 223.136 91.424 228.896 100.832C234.848 110.24 237.824 121.376 237.824 134.24H194.624C194.624 125.792 192.224 119.36 187.424 114.944C182.816 110.528 176.192 108.32 167.552 108.32C158.912 108.32 152.192 110.528 147.392 114.944C142.784 119.36 140.48 125.792 140.48 134.24V223.52C140.48 231.776 142.784 238.208 147.392 242.816C152.192 247.232 158.912 249.44 167.552 249.44C176.192 249.44 182.816 247.232 187.424 242.816C192.224 238.208 194.624 231.776 194.624 223.52V205.376H163.52V168.8H237.824V223.52C237.824 236.192 234.848 247.328 228.896 256.928C223.136 266.336 214.976 273.728 204.416 279.104C194.048 284.288 181.76 286.88 167.552 286.88Z" fill="#CC241D"/>
<path d="M434.08 283L487.072 72.76H533.44L586.72 283H549.856L538.336 232.024H482.464L470.944 283H434.08ZM489.088 202.648H531.712L519.04 146.2C516.928 136.792 515.104 128.344 513.568 120.856C512.032 113.176 510.976 107.608 510.4 104.152C509.824 107.608 508.768 113.176 507.232 120.856C505.888 128.344 504.064 136.696 501.76 145.912L489.088 202.648Z" fill="#D79921"/>
<path d="M283.68 284V73.76H298.08V168.224H378.72V73.76H393.12V284H378.72V181.472H298.08V284H283.68Z" fill="#98971A"/>
<path d="M683.84 285.88C670.976 285.88 659.744 283.576 650.144 278.968C640.736 274.36 633.44 267.832 628.256 259.384C623.072 250.936 620.48 241.048 620.48 229.72H634.88C634.88 242.776 639.296 253.24 648.128 261.112C657.152 268.984 669.056 272.92 683.84 272.92C698.24 272.92 709.472 269.368 717.536 262.264C725.792 254.968 729.92 244.888 729.92 232.024C729.92 220.888 726.752 211.192 720.416 202.936C714.08 194.68 705.44 188.92 694.496 185.656L670.304 178.456C656.48 174.232 645.632 167.224 637.76 157.432C630.08 147.448 626.24 135.64 626.24 122.008C626.24 111.256 628.544 102.04 633.152 94.36C637.952 86.488 644.672 80.44 653.312 76.216C662.144 71.992 672.416 69.88 684.128 69.88C701.792 69.88 715.712 74.872 725.888 84.856C736.256 94.648 741.44 108.088 741.44 125.176H727.04C727.04 112.312 723.104 102.04 715.232 94.36C707.36 86.68 696.896 82.84 683.84 82.84C670.4 82.84 659.84 86.2 652.16 92.92C644.48 99.64 640.64 108.952 640.64 120.856C640.64 131.224 643.616 140.344 649.568 148.216C655.52 155.896 663.584 161.368 673.76 164.632L697.952 172.12C712.16 176.536 723.392 184.024 731.648 194.584C740.096 205.144 744.32 217.336 744.32 231.16C744.32 242.296 741.824 251.992 736.832 260.248C732.032 268.312 725.12 274.648 716.096 279.256C707.072 283.672 696.32 285.88 683.84 285.88Z" fill="#458588"/>
<path d="M959.584 282L1017.47 71.76H1035.33L1093.22 282H1078.24L1062.11 221.52H990.112L973.984 282H959.584ZM993.568 208.56H1058.66L1035.9 123.6C1033.22 113.232 1031.01 104.592 1029.28 97.68C1027.74 90.576 1026.78 85.968 1026.4 83.856C1026.02 85.968 1024.96 90.576 1023.23 97.68C1021.5 104.592 1019.3 113.232 1016.61 123.6L993.568 208.56Z" fill="#689D6A"/>
<path d="M1137.92 281V70.76H1172.48L1236.7 250.76C1236.32 245.96 1235.84 240.104 1235.26 233.192C1234.88 226.088 1234.5 218.696 1234.11 211.016C1233.92 203.144 1233.82 195.752 1233.82 188.84V70.76H1258.88V281H1224.32L1160.38 101C1160.77 105.608 1161.15 111.464 1161.54 118.568C1161.92 125.48 1162.21 132.872 1162.4 140.744C1162.78 148.424 1162.98 155.816 1162.98 162.92V281H1137.92Z" fill="#D65D0E"/>
<path d="M855.264 285.88C841.056 285.88 828.864 283.576 818.688 278.968C808.512 274.168 800.64 267.448 795.072 258.808C789.504 249.976 786.72 239.512 786.72 227.416H817.536C817.536 237.016 820.896 244.6 827.616 250.168C834.336 255.544 843.648 258.232 855.552 258.232C866.688 258.232 875.424 255.544 881.76 250.168C888.096 244.792 891.264 237.4 891.264 227.992C891.264 220.12 889.056 213.304 884.64 207.544C880.416 201.784 874.272 197.848 866.208 195.736L839.712 187.96C824.352 183.544 812.448 176.056 804 165.496C795.744 154.744 791.616 141.976 791.616 127.192C791.616 115.672 794.208 105.592 799.392 96.952C804.576 88.312 811.968 81.592 821.568 76.792C831.168 71.992 842.496 69.592 855.552 69.592C874.752 69.592 890.112 74.776 901.632 85.144C913.344 95.512 919.296 109.432 919.488 126.904H888.384C888.384 117.688 885.408 110.488 879.456 105.304C873.696 99.928 865.536 97.24 854.976 97.24C844.8 97.24 836.832 99.736 831.072 104.728C825.312 109.528 822.432 116.344 822.432 125.176C822.432 133.048 824.544 139.864 828.768 145.624C833.184 151.384 839.424 155.416 847.488 157.72L874.272 165.784C889.632 170.008 901.44 177.496 909.696 188.248C917.952 199 922.08 211.864 922.08 226.84C922.08 238.552 919.296 248.92 913.728 257.944C908.16 266.776 900.384 273.688 890.4 278.68C880.416 283.48 868.704 285.88 855.264 285.88Z" fill="#B16286"/>
</g>
<defs>
<clipPath id="clip0_51_949">
<rect width="1920" height="1080" fill="white"/>
</clipPath>
</defs>
</svg>
